HIERARCHY
ROOT Hips
{
	OFFSET 0.000000 100.481300 0.000000
	CHANNELS 6 Xposition Yposition Zposition Xrotation Yrotation Zrotation 
	JOINT Spine
	{
		OFFSET -0.279200 12.230698 -2.892100
		CHANNELS 3 Xrotation Yrotation Zrotation
		JOINT Spine1
		{
			OFFSET -0.232667 10.192268 -1.242267
			CHANNELS 3 Xrotation Yrotation Zrotation
			JOINT Spine1_split
			{
				OFFSET -0.232667 10.192268 -1.242267
				CHANNELS 3 Xrotation Yrotation Zrotation
				JOINT Spine2
				{
					OFFSET -0.232667 10.192268 -1.242267
					CHANNELS 3 Xrotation Yrotation Zrotation
					JOINT Neck
					{
						OFFSET -0.418800 17.814194 8.416900
						CHANNELS 3 Xrotation Yrotation Zrotation
						JOINT Head
						{
							OFFSET 0.000000 7.031097 3.806800
							CHANNELS 3 Xrotation Yrotation Zrotation
							JOINT HeadTop_End
							{
								OFFSET 0.000000 24.646606 12.978600
								CHANNELS 3 Xrotation Yrotation Zrotation
								End Site
								{
									OFFSET 0.000000 0.000000 0.000000
								}
							}
						}
					}
					JOINT LeftShoulder
					{
						OFFSET 8.476499 7.247704 -3.868750
						CHANNELS 3 Xrotation Yrotation Zrotation
						JOINT LeftShoulder_split
						{
							OFFSET 8.476499 7.247704 -3.868750
							CHANNELS 3 Xrotation Yrotation Zrotation
							JOINT LeftArm
							{
								OFFSET 9.308998 -2.777710 0.208600
								CHANNELS 3 Xrotation Yrotation Zrotation
								JOINT LeftForeArm
								{
									OFFSET 29.972298 0.000000 0.000000
									CHANNELS 3 Xrotation Yrotation Zrotation
									JOINT LeftHand
									{
										OFFSET 26.026505 0.000000 0.000000
										CHANNELS 3 Xrotation Yrotation Zrotation
										JOINT LeftHandThumb1
										{
											OFFSET 12.240501 -7.147949 9.207150
											CHANNELS 3 Xrotation Yrotation Zrotation
											JOINT LeftHandThumb2
											{
												OFFSET 4.138618 -2.389435 2.389433
												CHANNELS 3 Xrotation Yrotation Zrotation
												JOINT LeftHandThumb3
												{
													OFFSET 2.726913 -1.574387 1.574386
													CHANNELS 3 Xrotation Yrotation Zrotation
													JOINT LeftHandThumb4
													{
														OFFSET 3.941010 -2.275345 2.275342
														CHANNELS 3 Xrotation Yrotation Zrotation
														End Site
														{
															OFFSET 0.000000 0.000000 0.000000
														}
													}
												}
											}
										}
										JOINT LeftHandIndex1
										{
											OFFSET 24.424698 -1.985611 5.953459
											CHANNELS 3 Xrotation Yrotation Zrotation
											JOINT LeftHandIndex2
											{
												OFFSET 6.426697 0.000000 0.000000
												CHANNELS 3 Xrotation Yrotation Zrotation
												JOINT LeftHandIndex3
												{
													OFFSET 5.337898 0.000000 0.000000
													CHANNELS 3 Xrotation Yrotation Zrotation
													JOINT LeftHandIndex4
													{
														OFFSET 4.409401 0.000000 0.000000
														CHANNELS 3 Xrotation Yrotation Zrotation
														End Site
														{
															OFFSET 0.000000 0.000000 0.000000
														}
													}
												}
											}
										}
										JOINT LeftHandMiddle1
										{
											OFFSET 23.810104 0.000000 0.000000
											CHANNELS 3 Xrotation Yrotation Zrotation
											JOINT LeftHandMiddle2
											{
												OFFSET 7.176498 0.000000 0.000000
												CHANNELS 3 Xrotation Yrotation Zrotation
												JOINT LeftHandMiddle3
												{
													OFFSET 6.774902 0.000000 0.000000
													CHANNELS 3 Xrotation Yrotation Zrotation
													JOINT LeftHandMiddle4
													{
														OFFSET 5.403328 0.000000 0.000000
														CHANNELS 3 Xrotation Yrotation Zrotation
														End Site
														{
															OFFSET 0.000000 0.000000 0.000000
														}
													}
												}
											}
										}
										JOINT LeftHandRing1
										{
											OFFSET 22.908401 -0.839279 -6.020567
											CHANNELS 3 Xrotation Yrotation Zrotation
											JOINT LeftHandRing2
											{
												OFFSET 6.337502 0.000000 0.000000
												CHANNELS 3 Xrotation Yrotation Zrotation
												JOINT LeftHandRing3
												{
													OFFSET 5.779297 0.000000 0.000000
													CHANNELS 3 Xrotation Yrotation Zrotation
													JOINT LeftHandRing4
													{
														OFFSET 4.965698 0.000000 0.000000
														CHANNELS 3 Xrotation Yrotation Zrotation
														End Site
														{
															OFFSET 0.000000 0.000000 0.000000
														}
													}
												}
											}
										}
										JOINT LeftHandPinky1
										{
											OFFSET 20.037003 -1.530319 -10.950146
											CHANNELS 3 Xrotation Yrotation Zrotation
											JOINT LeftHandPinky2
											{
												OFFSET 5.254700 0.000000 0.000000
												CHANNELS 3 Xrotation Yrotation Zrotation
												JOINT LeftHandPinky3
												{
													OFFSET 4.810204 0.000000 0.000000
													CHANNELS 3 Xrotation Yrotation Zrotation
													JOINT LeftHandPinky4
													{
														OFFSET 3.647202 0.000000 0.000000
														CHANNELS 3 Xrotation Yrotation Zrotation
														End Site
														{
															OFFSET 0.000000 0.000000 0.000000
														}
													}
												}
											}
										}
									}
								}
							}
						}
					}
					JOINT RightShoulder
					{
						OFFSET -7.570500 7.247704 -3.868750
						CHANNELS 3 Xrotation Yrotation Zrotation
						JOINT RightShoulder_split
						{
							OFFSET -7.570500 7.247704 -3.868750
							CHANNELS 3 Xrotation Yrotation Zrotation
							JOINT RightArm
							{
								OFFSET -9.308998 -2.777710 0.208500
								CHANNELS 3 Xrotation Yrotation Zrotation
								JOINT RightForeArm
								{
									OFFSET -29.972300 0.000000 0.000000
									CHANNELS 3 Xrotation Yrotation Zrotation
									JOINT RightHand
									{
										OFFSET -26.026505 0.000000 0.000000
										CHANNELS 3 Xrotation Yrotation Zrotation
										JOINT RightHandThumb1
										{
											OFFSET -12.240601 -7.148026 9.207092
											CHANNELS 3 Xrotation Yrotation Zrotation
											JOINT RightHandThumb2
											{
												OFFSET -4.138618 -2.389435 2.389433
												CHANNELS 3 Xrotation Yrotation Zrotation
												JOINT RightHandThumb3
												{
													OFFSET -2.726974 -1.574417 1.574421
													CHANNELS 3 Xrotation Yrotation Zrotation
													JOINT RightHandThumb4
													{
														OFFSET -3.941010 -2.275345 2.275343
														CHANNELS 3 Xrotation Yrotation Zrotation
														End Site
														{
															OFFSET 0.000000 0.000000 0.000000
														}
													}
												}
											}
										}
										JOINT RightHandIndex1
										{
											OFFSET -24.424698 -1.985657 5.953444
											CHANNELS 3 Xrotation Yrotation Zrotation
											JOINT RightHandIndex2
											{
												OFFSET -6.426697 0.000000 0.000000
												CHANNELS 3 Xrotation Yrotation Zrotation
												JOINT RightHandIndex3
												{
													OFFSET -5.337898 0.000000 0.000000
													CHANNELS 3 Xrotation Yrotation Zrotation
													JOINT RightHandIndex4
													{
														OFFSET -4.409401 0.000000 0.000000
														CHANNELS 3 Xrotation Yrotation Zrotation
														End Site
														{
															OFFSET 0.000000 0.000000 0.000000
														}
													}
												}
											}
										}
										JOINT RightHandMiddle1
										{
											OFFSET -23.810097 0.000000 0.000000
											CHANNELS 3 Xrotation Yrotation Zrotation
											JOINT RightHandMiddle2
											{
												OFFSET -7.176498 0.000000 0.000000
												CHANNELS 3 Xrotation Yrotation Zrotation
												JOINT RightHandMiddle3
												{
													OFFSET -6.774902 0.000000 0.000000
													CHANNELS 3 Xrotation Yrotation Zrotation
													JOINT RightHandMiddle4
													{
														OFFSET -5.403328 0.000000 0.000000
														CHANNELS 3 Xrotation Yrotation Zrotation
														End Site
														{
															OFFSET 0.000000 0.000000 0.000000
														}
													}
												}
											}
										}
										JOINT RightHandRing1
										{
											OFFSET -22.908302 -0.839325 -6.020576
											CHANNELS 3 Xrotation Yrotation Zrotation
											JOINT RightHandRing2
											{
												OFFSET -6.337502 0.000000 0.000000
												CHANNELS 3 Xrotation Yrotation Zrotation
												JOINT RightHandRing3
												{
													OFFSET -5.779297 0.000000 0.000000
													CHANNELS 3 Xrotation Yrotation Zrotation
													JOINT RightHandRing4
													{
														OFFSET -4.965698 0.000000 0.000000
														CHANNELS 3 Xrotation Yrotation Zrotation
														End Site
														{
															OFFSET 0.000000 0.000000 0.000000
														}
													}
												}
											}
										}
										JOINT RightHandPinky1
										{
											OFFSET -20.037003 -1.530334 -10.950259
											CHANNELS 3 Xrotation Yrotation Zrotation
											JOINT RightHandPinky2
											{
												OFFSET -5.254700 0.000000 0.000000
												CHANNELS 3 Xrotation Yrotation Zrotation
												JOINT RightHandPinky3
												{
													OFFSET -4.810204 0.000000 0.000000
													CHANNELS 3 Xrotation Yrotation Zrotation
													JOINT RightHandPinky4
													{
														OFFSET -3.647202 0.000000 0.000000
														CHANNELS 3 Xrotation Yrotation Zrotation
														End Site
														{
															OFFSET 0.000000 0.000000 0.000000
														}
													}
												}
											}
										}
									}
								}
							}
						}
					}
				}
			}
		}
	}
	JOINT LeftUpLeg
	{
		OFFSET 15.427100 -6.655098 0.678600
		CHANNELS 3 Xrotation Yrotation Zrotation
		JOINT LeftLeg
		{
			OFFSET 4.081073 -39.591068 13.024000
			CHANNELS 3 Xrotation Yrotation Zrotation
			JOINT LeftFoot
			{
				OFFSET -4.081074 -37.707932 -15.979700
				CHANNELS 3 Xrotation Yrotation Zrotation
				JOINT LeftToeBase
				{
					OFFSET 5.346399 -15.068900 20.645000
					CHANNELS 3 Xrotation Yrotation Zrotation
					JOINT LeftToe_End
					{
						OFFSET 2.754700 0.931300 11.300900
						CHANNELS 3 Xrotation Yrotation Zrotation
						End Site
						{
							OFFSET 0.000000 0.000000 0.000000
						}
					}
				}
			}
		}
	}
	JOINT RightUpLeg
	{
		OFFSET -15.569500 -6.655098 0.678600
		CHANNELS 3 Xrotation Yrotation Zrotation
		JOINT RightLeg
		{
			OFFSET -4.081825 -39.591045 13.023800
			CHANNELS 3 Xrotation Yrotation Zrotation
			JOINT RightFoot
			{
				OFFSET 4.081824 -37.707954 -15.979600
				CHANNELS 3 Xrotation Yrotation Zrotation
				JOINT RightToeBase
				{
					OFFSET -5.346400 -15.068900 20.645000
					CHANNELS 3 Xrotation Yrotation Zrotation
					JOINT RightToe_End
					{
						OFFSET -2.754700 0.931300 11.300900
						CHANNELS 3 Xrotation Yrotation Zrotation
						End Site
						{
							OFFSET 0.000000 0.000000 0.000000
						}
					}
				}
			}
		}
	}
}
MOTION
Frames: 4
Frame Time: 0.016667
12.799022 80.625443 75.741631 -196.530620 47.423028 187.475265 12.835634 3.370033 -4.801944 11.924117 11.118076 -15.175193 0.000000 0.000000 0.000000 1.101632 14.665741 -10.905800 10.817002 7.709375 8.813432 -10.499631 11.214113 -3.938366 0.000001 0.000001 -0.000000 0.441620 12.913610 -8.023904 0.000000 0.000000 0.000000 24.289872 30.045142 -67.066645 -59.876635 -28.113463 -29.309517 -3.278544 20.437917 28.775570 14.303302 -13.828679 17.477160 -1.153273 11.257909 -8.413992 5.706537 8.483131 -0.820704 -0.000001 0.000000 0.000000 -1.170671 -7.739180 -1.295044 -0.043940 -0.938004 -21.136816 0.078792 -0.197829 -2.210117 0.000000 0.000000 -0.000000 1.351891 3.178797 -22.421069 0.508241 -1.065572 -16.741345 0.662319 -1.351759 -20.312460 -0.000001 0.000001 0.000003 1.727811 5.794800 -31.799168 -0.855268 -0.880773 -22.637694 -0.896779 -1.043611 -25.799528 -0.000000 -0.000001 0.000000 1.357505 4.983799 -40.153159 -1.028412 -0.556630 -20.486625 -2.595594 -0.375245 -38.417690 -0.000001 0.000001 0.000001 1.205995 17.292714 2.836857 0.000000 0.000000 0.000000 -64.233346 30.995521 72.958045 51.591130 12.758257 4.090923 2.838924 31.571843 -10.829787 55.149563 18.649591 -29.698298 -0.442561 -14.180530 7.313137 21.666970 -29.244507 9.142383 -0.000000 0.000000 -0.000000 5.673380 7.585027 36.844171 1.050469 3.824481 68.900237 0.499576 3.026040 62.196454 -0.000001 -0.000003 -0.000000 -0.125668 1.886097 45.000759 -1.169018 3.204646 68.417636 -0.936403 1.813607 41.107565 -0.000003 0.000003 -0.000001 -5.311997 1.216648 58.508821 -0.745226 1.667584 48.011302 -0.816486 1.840598 53.666569 0.000000 0.000002 0.000001 -7.756830 -9.376453 47.264004 -0.526018 1.541558 45.600518 -0.508178 0.803468 24.986610 0.000002 -0.000000 -0.000000 -55.631317 -7.266385 11.505876 30.014092 -39.214011 5.688026 5.942794 -1.995736 -19.606796 0.925216 1.825793 -4.761540 0.000000 -0.000000 0.000000 -23.625098 -26.544004 -27.023153 40.648337 -6.414947 8.103662 -18.902286 -7.692461 20.343194 0.120151 -2.135966 0.002621 -0.000000 0.000000 -0.000000 
12.580183 80.706146 75.315842 -196.908179 49.679381 188.118627 12.692359 3.319661 -4.717967 11.663235 11.031791 -15.073990 0.000000 0.000000 0.000000 0.830133 14.573233 -10.818437 11.049083 7.758149 8.929899 -10.080376 11.211610 -3.802283 -0.000001 -0.000000 0.000000 0.560212 12.569469 -8.809949 0.000000 0.000000 0.000000 21.591058 29.149622 -64.927211 -59.006954 -28.841710 -29.005334 -2.755790 20.006138 26.728934 15.094006 -13.012280 16.727405 -1.153511 11.257996 -8.413059 5.706539 8.483134 -0.820706 -0.000000 -0.000002 0.000000 -1.291521 -7.470752 -5.110734 -0.002006 -0.823181 -18.506059 0.076676 -0.234255 -2.984793 0.000000 -0.000002 -0.000004 1.303965 3.063956 -24.663256 0.471301 -1.179148 -19.128367 0.618076 -1.462978 -22.699837 0.000000 0.000001 0.000001 1.653454 5.671086 -34.035813 -0.906822 -0.999023 -25.024316 -0.958269 -1.162623 -28.186268 -0.000003 -0.000000 -0.000002 1.279391 4.888705 -42.390951 -1.078336 -0.680985 -22.872760 -2.673764 -0.470438 -40.804609 0.000002 0.000001 0.000001 1.220488 16.569691 3.011173 0.000000 0.000000 0.000000 -64.817881 30.099985 76.400898 53.142953 8.465465 3.719470 2.148548 35.073387 -9.633444 55.149570 18.649587 -29.698301 -0.442560 -14.180523 7.313135 21.666969 -29.244497 9.142380 0.000002 -0.000003 0.000001 5.673382 7.585028 36.844171 1.050472 3.824482 68.900230 0.499577 3.026044 62.196454 -0.000000 0.000001 0.000000 -0.125668 1.886100 45.000756 -1.169018 3.204647 68.417636 -0.936402 1.813606 41.107565 -0.000000 0.000000 0.000001 -5.311995 1.216650 58.508814 -0.745223 1.667583 48.011298 -0.816490 1.840599 53.666569 0.000001 0.000001 -0.000001 -7.756829 -9.376452 47.264004 -0.526019 1.541558 45.600522 -0.508176 0.803469 24.986610 0.000000 -0.000000 -0.000000 -54.822431 -7.091707 12.807744 30.845759 -37.920152 5.506634 4.920174 -1.624437 -19.096760 0.847124 1.809863 -4.886963 0.000000 0.000000 -0.000000 -24.885383 -26.227795 -27.633318 40.090113 -4.494775 8.231445 -18.169627 -7.167553 19.127583 0.119884 -2.068495 0.002515 0.000000 0.000000 -0.000000 
12.335505 80.681946 74.848267 -197.465700 52.028228 188.885835 12.510467 3.248277 -4.622147 11.349579 10.896052 -14.949136 0.000000 0.000000 0.000000 0.503248 14.434864 -10.712579 11.312802 7.850704 9.045675 -9.601175 11.292456 -3.805254 -0.000000 0.000000 0.000000 0.690147 12.814776 -9.700470 0.000000 0.000000 0.000000 17.839872 28.067213 -61.511994 -57.352197 -29.386885 -29.329526 -2.509853 19.581731 26.010313 15.852526 -12.226281 15.981150 -1.153661 11.258084 -8.411983 5.706539 8.483133 -0.820704 -0.000003 -0.000002 0.000001 -1.364784 -7.206529 -8.793113 0.033244 -0.710944 -15.958039 0.074799 -0.269110 -3.735203 0.000002 -0.000001 -0.000003 1.253973 2.954634 -26.823591 0.431627 -1.287416 -21.434317 0.571738 -1.568818 -25.006139 -0.000003 -0.000000 -0.000000 1.578073 5.553401 -36.190550 -0.962028 -1.110689 -27.329904 -1.023085 -1.274700 -30.491993 0.000001 0.000001 0.000000 1.200976 4.799953 -44.547027 -1.129969 -0.799926 -25.177720 -2.753760 -0.558788 -43.110416 -0.000001 -0.000002 -0.000002 1.222233 16.439876 2.931223 0.000000 0.000000 0.000000 -60.208281 28.479526 76.380797 52.535442 10.352236 -2.661527 -0.725328 34.527812 -2.792954 55.149563 18.649589 -29.698298 -0.442562 -14.180528 7.313136 21.666975 -29.244507 9.142384 -0.000003 -0.000001 -0.000001 5.673376 7.585028 36.844171 1.050473 3.824484 68.900237 0.499574 3.026041 62.196454 -0.000001 0.000001 0.000001 -0.125671 1.886095 45.000759 -1.169017 3.204646 68.417636 -0.936401 1.813606 41.107565 0.000000 -0.000002 -0.000001 -5.312002 1.216650 58.508814 -0.745225 1.667585 48.011298 -0.816490 1.840598 53.666565 -0.000001 -0.000001 -0.000004 -7.756833 -9.376453 47.264001 -0.526018 1.541556 45.600518 -0.508173 0.803468 24.986610 0.000001 0.000000 -0.000000 -54.100941 -7.039126 14.100202 31.938900 -36.495914 5.400207 3.741966 -1.197224 -18.630101 0.766629 1.795220 -5.019848 -0.000000 0.000001 -0.000000 -26.301288 -25.763644 -28.233941 39.733570 -2.709632 8.339161 -17.400959 -6.517848 18.079711 0.118108 -1.636572 0.001957 0.000000 0.000000 0.000000 
12.122519 80.596443 74.249969 -198.319447 54.614596 189.898179 12.296101 3.167330 -4.532592 10.965555 10.728925 -14.870421 0.000000 0.000000 0.000000 0.112408 14.271536 -10.661716 11.492974 7.964789 9.125450 -9.194657 11.332436 -3.605142 -0.000001 -0.000000 0.000000 0.813241 12.488586 -10.557386 0.000000 0.000000 0.000000 13.645991 26.592998 -57.689171 -53.947071 -30.883793 -28.900856 -2.216758 18.855328 25.368730 16.555677 -11.495710 15.265833 -1.153768 11.258155 -8.410828 5.706541 8.483136 -0.820704 -0.000000 0.000003 -0.000000 -1.394217 -6.959262 -12.216297 0.061287 -0.605629 -13.575353 0.072305 -0.301884 -4.436905 0.000000 0.000002 0.000003 1.204422 2.854573 -28.821701 0.391339 -1.386590 -23.578624 0.525546 -1.665714 -27.150827 0.000000 -0.000000 0.000000 1.504881 5.445189 -38.183380 -1.018057 -1.212278 -29.473984 -1.087890 -1.376229 -32.636167 0.000002 0.000000 0.000001 1.125875 4.720260 -46.541158 -1.183258 -0.908395 -27.321235 -2.830994 -0.638973 -45.254641 0.000002 0.000002 -0.000004 1.273169 15.702842 2.792939 0.000000 0.000000 0.000000 -54.445661 25.923080 69.909882 52.735921 24.416326 -3.568415 -2.348692 28.229711 0.359080 55.149563 18.649586 -29.698298 -0.442564 -14.180530 7.313133 21.666969 -29.244500 9.142382 -0.000003 -0.000003 -0.000000 5.673374 7.585026 36.844168 1.050470 3.824483 68.900237 0.499580 3.026044 62.196461 -0.000001 0.000003 -0.000002 -0.125672 1.886098 45.000759 -1.169016 3.204649 68.417636 -0.936404 1.813606 41.107565 -0.000001 0.000003 0.000000 -5.312001 1.216648 58.508814 -0.745224 1.667586 48.011302 -0.816493 1.840597 53.666569 0.000001 0.000001 -0.000000 -7.756834 -9.376452 47.264001 -0.526019 1.541561 45.600522 -0.508177 0.803469 24.986611 0.000000 -0.000000 0.000000 -53.465136 -6.859550 15.624498 33.241124 -35.075067 5.064421 2.393930 -0.756428 -17.950079 0.683382 1.781006 -5.156228 -0.000000 0.000001 0.000000 -27.728557 -24.896755 -28.598398 39.408559 -0.914758 8.380415 -16.540176 -6.085356 17.158098 0.117187 -1.459242 0.001743 -0.000000 0.000001 -0.000000 
